<mxfile host="Electron" modified="2024-10-24T10:14:00.167Z" agent="Mozilla/5.0 (Windows NT 10.0; Win64; x64) AppleWebKit/537.36 (KHTML, like Gecko) draw.io/23.1.5 Chrome/120.0.6099.109 Electron/28.1.0 Safari/537.36" etag="hrAghkJLZh6vJLWvZ-x4" version="23.1.5" type="device">
  <diagram name="Page-1" id="aylj2DVklWK9OP2oPFIt">
    <mxGraphModel dx="2374" dy="739" grid="1" gridSize="10" guides="1" tooltips="1" connect="1" arrows="1" fold="1" page="1" pageScale="1" pageWidth="850" pageHeight="1100" math="0" shadow="0">
      <root>
        <mxCell id="0" />
        <mxCell id="1" parent="0" />
        <mxCell id="YAITCbdJCKw2DhXLHWH_-10" value="" style="rounded=0;whiteSpace=wrap;html=1;" parent="1" vertex="1">
          <mxGeometry x="200" y="140" width="1090" height="1470" as="geometry" />
        </mxCell>
        <mxCell id="YAITCbdJCKw2DhXLHWH_-11" value="User" style="shape=umlActor;verticalLabelPosition=bottom;verticalAlign=top;html=1;" parent="1" vertex="1">
          <mxGeometry x="-80" y="927.5" width="30" height="60" as="geometry" />
        </mxCell>
        <mxCell id="YAITCbdJCKw2DhXLHWH_-14" value="&lt;font style=&quot;font-size: 14px;&quot;&gt;Hệ thống bán hàng thương mại điện tử (nếu chưa có tài khoản)&lt;/font&gt;" style="text;html=1;align=center;verticalAlign=middle;whiteSpace=wrap;rounded=0;" parent="1" vertex="1">
          <mxGeometry x="580" y="160" width="430" height="30" as="geometry" />
        </mxCell>
        <mxCell id="YAITCbdJCKw2DhXLHWH_-15" value="&lt;font style=&quot;font-size: 14px;&quot;&gt;Xem danh sách sản phẩm theo từng trạng thái&lt;/font&gt;" style="ellipse;whiteSpace=wrap;html=1;" parent="1" vertex="1">
          <mxGeometry x="255" y="340" width="190" height="75" as="geometry" />
        </mxCell>
        <mxCell id="YAITCbdJCKw2DhXLHWH_-16" value="&lt;font style=&quot;font-size: 14px;&quot;&gt;Xem danh sách sản phẩm đã giảm giá&lt;/font&gt;" style="ellipse;whiteSpace=wrap;html=1;" parent="1" vertex="1">
          <mxGeometry x="480" y="320" width="180" height="75" as="geometry" />
        </mxCell>
        <mxCell id="YAITCbdJCKw2DhXLHWH_-17" value="&lt;font style=&quot;font-size: 14px;&quot;&gt;Xem danh sách sản phẩm theo từng danh mục&lt;/font&gt;" style="ellipse;whiteSpace=wrap;html=1;" parent="1" vertex="1">
          <mxGeometry x="240" y="670" width="190" height="75" as="geometry" />
        </mxCell>
        <mxCell id="YAITCbdJCKw2DhXLHWH_-19" value="&lt;font style=&quot;font-size: 14px;&quot;&gt;&amp;lt;&amp;lt;extend&amp;gt;&amp;gt;&lt;/font&gt;" style="endArrow=open;endSize=12;dashed=1;html=1;rounded=0;entryX=0.47;entryY=0.979;entryDx=0;entryDy=0;exitX=0.5;exitY=0;exitDx=0;exitDy=0;entryPerimeter=0;" parent="1" source="YAITCbdJCKw2DhXLHWH_-17" target="YAITCbdJCKw2DhXLHWH_-22" edge="1">
          <mxGeometry x="-0.2542" y="-17" width="160" relative="1" as="geometry">
            <mxPoint x="513" y="434" as="sourcePoint" />
            <mxPoint x="320" y="350" as="targetPoint" />
            <mxPoint as="offset" />
          </mxGeometry>
        </mxCell>
        <mxCell id="YAITCbdJCKw2DhXLHWH_-20" value="&lt;font style=&quot;font-size: 14px;&quot;&gt;&amp;lt;&amp;lt;extend&amp;gt;&amp;gt;&lt;/font&gt;" style="endArrow=open;endSize=12;dashed=1;html=1;rounded=0;entryX=0.5;entryY=0;entryDx=0;entryDy=0;exitX=0.5;exitY=1;exitDx=0;exitDy=0;" parent="1" source="YAITCbdJCKw2DhXLHWH_-15" target="YAITCbdJCKw2DhXLHWH_-22" edge="1">
          <mxGeometry x="-0.2542" y="-17" width="160" relative="1" as="geometry">
            <mxPoint x="495" y="400" as="sourcePoint" />
            <mxPoint x="490" y="310" as="targetPoint" />
            <mxPoint as="offset" />
          </mxGeometry>
        </mxCell>
        <mxCell id="YAITCbdJCKw2DhXLHWH_-21" value="&lt;font style=&quot;font-size: 14px;&quot;&gt;&amp;lt;&amp;lt;extends&amp;gt;&amp;gt;&lt;/font&gt;" style="endArrow=open;endSize=12;dashed=1;html=1;rounded=0;" parent="1" source="YAITCbdJCKw2DhXLHWH_-16" target="YAITCbdJCKw2DhXLHWH_-22" edge="1">
          <mxGeometry x="-0.2542" y="-17" width="160" relative="1" as="geometry">
            <mxPoint x="640" y="440" as="sourcePoint" />
            <mxPoint x="490" y="422" as="targetPoint" />
            <mxPoint as="offset" />
          </mxGeometry>
        </mxCell>
        <mxCell id="YAITCbdJCKw2DhXLHWH_-22" value="&lt;font style=&quot;font-size: 14px;&quot;&gt;Xem danh sách sản phẩm&lt;br&gt;(Có thể mở rộng danh sách)&amp;nbsp;&lt;/font&gt;" style="ellipse;whiteSpace=wrap;html=1;" parent="1" vertex="1">
          <mxGeometry x="250" y="515" width="190" height="75" as="geometry" />
        </mxCell>
        <mxCell id="YAITCbdJCKw2DhXLHWH_-25" value="" style="endArrow=none;html=1;rounded=0;entryX=0;entryY=0.5;entryDx=0;entryDy=0;" parent="1" source="YAITCbdJCKw2DhXLHWH_-11" target="YAITCbdJCKw2DhXLHWH_-22" edge="1">
          <mxGeometry width="50" height="50" relative="1" as="geometry">
            <mxPoint x="-90" y="445" as="sourcePoint" />
            <mxPoint x="260" y="250" as="targetPoint" />
          </mxGeometry>
        </mxCell>
        <mxCell id="YAITCbdJCKw2DhXLHWH_-27" value="&lt;span style=&quot;font-size: 14px;&quot;&gt;Xem chi tiết cụ thể sản phẩm&lt;/span&gt;" style="ellipse;whiteSpace=wrap;html=1;" parent="1" vertex="1">
          <mxGeometry x="750" y="440" width="180" height="75" as="geometry" />
        </mxCell>
        <mxCell id="YAITCbdJCKw2DhXLHWH_-28" value="&lt;span style=&quot;font-size: 14px;&quot;&gt;Xem danh sách sản phẩm liên quan&lt;/span&gt;" style="ellipse;whiteSpace=wrap;html=1;" parent="1" vertex="1">
          <mxGeometry x="750" y="580" width="180" height="75" as="geometry" />
        </mxCell>
        <mxCell id="YAITCbdJCKw2DhXLHWH_-33" value="" style="endArrow=none;html=1;rounded=0;" parent="1" source="YAITCbdJCKw2DhXLHWH_-11" target="YAITCbdJCKw2DhXLHWH_-60" edge="1">
          <mxGeometry width="50" height="50" relative="1" as="geometry">
            <mxPoint x="-60" y="530" as="sourcePoint" />
            <mxPoint x="255" y="957.5000000000002" as="targetPoint" />
          </mxGeometry>
        </mxCell>
        <mxCell id="YAITCbdJCKw2DhXLHWH_-37" value="&lt;font style=&quot;font-size: 14px;&quot;&gt;Condition: click vào sản phẩm đó&lt;/font&gt;" style="shape=card;whiteSpace=wrap;html=1;" parent="1" vertex="1">
          <mxGeometry x="500" y="610" width="180" height="60" as="geometry" />
        </mxCell>
        <mxCell id="YAITCbdJCKw2DhXLHWH_-38" value="" style="endArrow=none;dashed=1;html=1;rounded=0;exitX=0;exitY=0;exitDx=105;exitDy=0;exitPerimeter=0;" parent="1" source="YAITCbdJCKw2DhXLHWH_-37" edge="1">
          <mxGeometry width="50" height="50" relative="1" as="geometry">
            <mxPoint x="600" y="550" as="sourcePoint" />
            <mxPoint x="600" y="510" as="targetPoint" />
          </mxGeometry>
        </mxCell>
        <mxCell id="YAITCbdJCKw2DhXLHWH_-58" value="&lt;font style=&quot;font-size: 14px;&quot;&gt;&amp;lt;&amp;lt;include&amp;gt;&amp;gt;&lt;/font&gt;" style="endArrow=open;endSize=12;dashed=1;html=1;rounded=0;exitX=0.5;exitY=0;exitDx=0;exitDy=0;entryX=0.5;entryY=1;entryDx=0;entryDy=0;" parent="1" source="YAITCbdJCKw2DhXLHWH_-28" target="YAITCbdJCKw2DhXLHWH_-27" edge="1">
          <mxGeometry width="160" relative="1" as="geometry">
            <mxPoint x="1010" y="525" as="sourcePoint" />
            <mxPoint x="1010" y="590" as="targetPoint" />
          </mxGeometry>
        </mxCell>
        <mxCell id="YAITCbdJCKw2DhXLHWH_-59" value="&lt;font style=&quot;font-size: 14px;&quot;&gt;&amp;lt;&amp;lt;include&amp;gt;&amp;gt;&lt;/font&gt;" style="endArrow=open;endSize=12;dashed=1;html=1;rounded=0;entryX=0.974;entryY=0.342;entryDx=0;entryDy=0;entryPerimeter=0;" parent="1" source="YAITCbdJCKw2DhXLHWH_-27" target="YAITCbdJCKw2DhXLHWH_-22" edge="1">
          <mxGeometry width="160" relative="1" as="geometry">
            <mxPoint x="290" y="507" as="sourcePoint" />
            <mxPoint x="609" y="448" as="targetPoint" />
          </mxGeometry>
        </mxCell>
        <mxCell id="YAITCbdJCKw2DhXLHWH_-60" value="&lt;span style=&quot;font-size: 14px;&quot;&gt;Thêm sản phẩm vào giỏ hàng.&lt;br&gt;&lt;/span&gt;" style="ellipse;whiteSpace=wrap;html=1;" parent="1" vertex="1">
          <mxGeometry x="240" y="790" width="260" height="90" as="geometry" />
        </mxCell>
        <mxCell id="NhquB-RcPdhSMH6WI3rw-1" value="&lt;font style=&quot;font-size: 14px;&quot;&gt;Xem thông tin giỏ hàng&lt;/font&gt;" style="ellipse;whiteSpace=wrap;html=1;" vertex="1" parent="1">
          <mxGeometry x="270" y="945.5" width="200" height="95" as="geometry" />
        </mxCell>
        <mxCell id="NhquB-RcPdhSMH6WI3rw-2" value="&lt;span style=&quot;font-size: 14px;&quot;&gt;Chỉnh sửa số lượng mua&lt;/span&gt;" style="ellipse;whiteSpace=wrap;html=1;" vertex="1" parent="1">
          <mxGeometry x="710" y="945.5" width="180" height="70" as="geometry" />
        </mxCell>
        <mxCell id="NhquB-RcPdhSMH6WI3rw-3" value="&lt;font style=&quot;font-size: 14px;&quot;&gt;&amp;lt;&amp;lt;include&amp;gt;&amp;gt;&lt;/font&gt;" style="endArrow=open;endSize=12;dashed=1;html=1;rounded=0;exitX=0;exitY=0.5;exitDx=0;exitDy=0;entryX=1;entryY=0.5;entryDx=0;entryDy=0;" edge="1" parent="1" source="NhquB-RcPdhSMH6WI3rw-2" target="NhquB-RcPdhSMH6WI3rw-1">
          <mxGeometry width="160" relative="1" as="geometry">
            <mxPoint x="430" y="1005" as="sourcePoint" />
            <mxPoint x="715" y="1003" as="targetPoint" />
          </mxGeometry>
        </mxCell>
        <mxCell id="NhquB-RcPdhSMH6WI3rw-4" value="&lt;font style=&quot;font-size: 14px;&quot;&gt;&amp;lt;&amp;lt;include&amp;gt;&amp;gt;&lt;/font&gt;" style="endArrow=open;endSize=12;dashed=1;html=1;rounded=0;entryX=1;entryY=1;entryDx=0;entryDy=0;" edge="1" parent="1" target="NhquB-RcPdhSMH6WI3rw-1" source="NhquB-RcPdhSMH6WI3rw-8">
          <mxGeometry x="0.0827" y="5" width="160" relative="1" as="geometry">
            <mxPoint x="750" y="1100" as="sourcePoint" />
            <mxPoint x="533" y="1143" as="targetPoint" />
            <mxPoint as="offset" />
          </mxGeometry>
        </mxCell>
        <mxCell id="NhquB-RcPdhSMH6WI3rw-5" value="&lt;span style=&quot;font-size: 14px;&quot;&gt;Xóa thông tin sản phẩm trong giỏ&lt;/span&gt;" style="ellipse;whiteSpace=wrap;html=1;" vertex="1" parent="1">
          <mxGeometry x="705" y="840" width="180" height="70" as="geometry" />
        </mxCell>
        <mxCell id="NhquB-RcPdhSMH6WI3rw-6" value="&lt;font style=&quot;font-size: 14px;&quot;&gt;&amp;lt;&amp;lt;include&amp;gt;&amp;gt;&lt;/font&gt;" style="endArrow=open;endSize=12;dashed=1;html=1;rounded=0;entryX=1;entryY=0;entryDx=0;entryDy=0;exitX=0;exitY=0.5;exitDx=0;exitDy=0;" edge="1" parent="1" source="NhquB-RcPdhSMH6WI3rw-5" target="NhquB-RcPdhSMH6WI3rw-1">
          <mxGeometry x="0.0811" y="5" width="160" relative="1" as="geometry">
            <mxPoint x="689" y="1000.5" as="sourcePoint" />
            <mxPoint x="370" y="914.5" as="targetPoint" />
            <mxPoint as="offset" />
          </mxGeometry>
        </mxCell>
        <mxCell id="NhquB-RcPdhSMH6WI3rw-8" value="&lt;font style=&quot;font-size: 14px;&quot;&gt;Nhập thông tin mã giảm giá&lt;/font&gt;" style="ellipse;whiteSpace=wrap;html=1;" vertex="1" parent="1">
          <mxGeometry x="720" y="1040.5" width="200" height="80" as="geometry" />
        </mxCell>
        <mxCell id="NhquB-RcPdhSMH6WI3rw-9" value="&lt;font style=&quot;font-size: 14px;&quot;&gt;Xem thông tin mã giảm giá&lt;/font&gt;" style="ellipse;whiteSpace=wrap;html=1;" vertex="1" parent="1">
          <mxGeometry x="270" y="1090" width="200" height="80" as="geometry" />
        </mxCell>
        <mxCell id="NhquB-RcPdhSMH6WI3rw-10" value="" style="endArrow=none;html=1;rounded=0;exitX=0.96;exitY=0.851;exitDx=0;exitDy=0;exitPerimeter=0;" edge="1" parent="1" source="YAITCbdJCKw2DhXLHWH_-11" target="NhquB-RcPdhSMH6WI3rw-1">
          <mxGeometry width="50" height="50" relative="1" as="geometry">
            <mxPoint x="-49" y="1035.5" as="sourcePoint" />
            <mxPoint x="270" y="945.5" as="targetPoint" />
          </mxGeometry>
        </mxCell>
        <mxCell id="NhquB-RcPdhSMH6WI3rw-11" value="" style="endArrow=none;html=1;rounded=0;entryX=0;entryY=0;entryDx=0;entryDy=0;exitX=1;exitY=1;exitDx=0;exitDy=0;exitPerimeter=0;" edge="1" parent="1" source="YAITCbdJCKw2DhXLHWH_-11" target="NhquB-RcPdhSMH6WI3rw-9">
          <mxGeometry width="50" height="50" relative="1" as="geometry">
            <mxPoint x="-90" y="1140" as="sourcePoint" />
            <mxPoint x="229" y="1050" as="targetPoint" />
          </mxGeometry>
        </mxCell>
        <mxCell id="NhquB-RcPdhSMH6WI3rw-12" value="&lt;span style=&quot;font-size: 14px;&quot;&gt;Xem chi tiết hóa đơn hàng&lt;br&gt;(Điều kiện: phải có hàng trong giỏ.)&lt;br&gt;&lt;/span&gt;" style="ellipse;whiteSpace=wrap;html=1;" vertex="1" parent="1">
          <mxGeometry x="240" y="1210" width="260" height="100" as="geometry" />
        </mxCell>
        <mxCell id="NhquB-RcPdhSMH6WI3rw-13" value="" style="endArrow=none;html=1;rounded=0;entryX=0;entryY=0;entryDx=0;entryDy=0;" edge="1" parent="1" target="NhquB-RcPdhSMH6WI3rw-12">
          <mxGeometry width="50" height="50" relative="1" as="geometry">
            <mxPoint x="-60" y="990" as="sourcePoint" />
            <mxPoint x="200" y="1220" as="targetPoint" />
          </mxGeometry>
        </mxCell>
        <mxCell id="NhquB-RcPdhSMH6WI3rw-16" value="&lt;span style=&quot;font-size: 14px;&quot;&gt;Điền thông tin hóa đơn&lt;br&gt;&lt;/span&gt;" style="ellipse;whiteSpace=wrap;html=1;" vertex="1" parent="1">
          <mxGeometry x="720" y="1227.5" width="190" height="65" as="geometry" />
        </mxCell>
        <mxCell id="NhquB-RcPdhSMH6WI3rw-17" value="&lt;font style=&quot;font-size: 14px;&quot;&gt;&amp;lt;&amp;lt;include&amp;gt;&amp;gt;&lt;/font&gt;" style="endArrow=open;endSize=12;dashed=1;html=1;rounded=0;" edge="1" parent="1" source="NhquB-RcPdhSMH6WI3rw-16" target="NhquB-RcPdhSMH6WI3rw-12">
          <mxGeometry x="0.0827" y="5" width="160" relative="1" as="geometry">
            <mxPoint x="732.5" y="1200" as="sourcePoint" />
            <mxPoint x="447.5" y="1160" as="targetPoint" />
            <mxPoint as="offset" />
          </mxGeometry>
        </mxCell>
        <mxCell id="NhquB-RcPdhSMH6WI3rw-18" value="&lt;span style=&quot;font-size: 14px;&quot;&gt;Xem danh sách đơn hàng đã đặt&lt;br&gt;(Điều kiện: phải đặt và chốt bill)&lt;br&gt;&lt;/span&gt;" style="ellipse;whiteSpace=wrap;html=1;" vertex="1" parent="1">
          <mxGeometry x="220" y="1460" width="260" height="80" as="geometry" />
        </mxCell>
        <mxCell id="NhquB-RcPdhSMH6WI3rw-19" value="&lt;span style=&quot;font-size: 14px;&quot;&gt;Hủy đơn hàng&lt;br&gt;(Có thời gian cụ thể)&lt;br&gt;&lt;/span&gt;" style="ellipse;whiteSpace=wrap;html=1;" vertex="1" parent="1">
          <mxGeometry x="740" y="1467.5" width="190" height="65" as="geometry" />
        </mxCell>
        <mxCell id="NhquB-RcPdhSMH6WI3rw-20" value="&lt;font style=&quot;font-size: 14px;&quot;&gt;&amp;lt;&amp;lt;include&amp;gt;&amp;gt;&lt;/font&gt;" style="endArrow=open;endSize=12;dashed=1;html=1;rounded=0;exitX=0;exitY=0.5;exitDx=0;exitDy=0;" edge="1" parent="1" source="NhquB-RcPdhSMH6WI3rw-19" target="NhquB-RcPdhSMH6WI3rw-18">
          <mxGeometry x="0.0827" y="5" width="160" relative="1" as="geometry">
            <mxPoint x="710" y="1340" as="sourcePoint" />
            <mxPoint x="490" y="1340" as="targetPoint" />
            <mxPoint as="offset" />
          </mxGeometry>
        </mxCell>
        <mxCell id="NhquB-RcPdhSMH6WI3rw-21" value="" style="endArrow=none;html=1;rounded=0;" edge="1" parent="1" source="YAITCbdJCKw2DhXLHWH_-11" target="NhquB-RcPdhSMH6WI3rw-18">
          <mxGeometry width="50" height="50" relative="1" as="geometry">
            <mxPoint x="-98" y="1050" as="sourcePoint" />
            <mxPoint x="240" y="1285" as="targetPoint" />
          </mxGeometry>
        </mxCell>
      </root>
    </mxGraphModel>
  </diagram>
</mxfile>
